<mxfile host="Electron" modified="2024-02-21T03:57:35.329Z" agent="Mozilla/5.0 (Macintosh; Intel Mac OS X 10_15_7) AppleWebKit/537.36 (KHTML, like Gecko) draw.io/22.1.11 Chrome/114.0.5735.289 Electron/25.9.8 Safari/537.36" etag="vVrX3e_7F7LVos1xY47u" version="22.1.11" type="device">
  <diagram name="第 1 页" id="2dJuupJE0BrPxiQT-TSp">
    <mxGraphModel dx="837" dy="509" grid="1" gridSize="10" guides="1" tooltips="1" connect="1" arrows="1" fold="1" page="1" pageScale="1" pageWidth="827" pageHeight="1169" background="#ffffff" math="0" shadow="0">
      <root>
        <mxCell id="0" />
        <mxCell id="1" parent="0" />
        <mxCell id="9l7qEHy62hfw4V-4WoK3-1" value="" style="group" parent="1" vertex="1" connectable="0">
          <mxGeometry x="40" y="160" width="820" height="500" as="geometry" />
        </mxCell>
        <mxCell id="QyD0KAcA9nVcB5G6zPwa-1" value="&lt;font size=&quot;1&quot; style=&quot;&quot;&gt;&lt;b style=&quot;font-size: 18px;&quot;&gt;界面操作&lt;/b&gt;&lt;/font&gt;" style="rounded=1;whiteSpace=wrap;html=1;" parent="9l7qEHy62hfw4V-4WoK3-1" vertex="1">
          <mxGeometry width="179.64" height="500" as="geometry" />
        </mxCell>
        <mxCell id="QyD0KAcA9nVcB5G6zPwa-9" value="主页&lt;br&gt;&lt;br&gt;&lt;br&gt;&lt;br&gt;&lt;br&gt;&lt;br&gt;&lt;br&gt;&lt;br&gt;&lt;br&gt;&lt;br&gt;&lt;br&gt;&lt;br&gt;" style="rounded=0;whiteSpace=wrap;html=1;fillColor=#f5f5f5;gradientColor=#b3b3b3;strokeColor=#666666;" parent="9l7qEHy62hfw4V-4WoK3-1" vertex="1">
          <mxGeometry x="30" y="19" width="120" height="201" as="geometry" />
        </mxCell>
        <mxCell id="QyD0KAcA9nVcB5G6zPwa-12" value="配置&lt;br&gt;&lt;br&gt;&lt;br&gt;&lt;br&gt;&lt;br&gt;&lt;br&gt;&lt;br&gt;&lt;br&gt;&lt;br&gt;&lt;br&gt;&lt;br&gt;&lt;br&gt;" style="rounded=0;whiteSpace=wrap;html=1;fillColor=#f5f5f5;gradientColor=#b3b3b3;strokeColor=#666666;" parent="9l7qEHy62hfw4V-4WoK3-1" vertex="1">
          <mxGeometry x="30" y="280" width="120" height="201" as="geometry" />
        </mxCell>
        <mxCell id="QyD0KAcA9nVcB5G6zPwa-15" value="" style="group" parent="9l7qEHy62hfw4V-4WoK3-1" vertex="1" connectable="0">
          <mxGeometry x="179.64" y="49" width="170" height="109" as="geometry" />
        </mxCell>
        <mxCell id="QyD0KAcA9nVcB5G6zPwa-4" value="" style="endArrow=classic;html=1;rounded=0;" parent="QyD0KAcA9nVcB5G6zPwa-15" edge="1">
          <mxGeometry width="50" height="50" relative="1" as="geometry">
            <mxPoint x="10.360000000000014" y="31" as="sourcePoint" />
            <mxPoint x="170.36" y="31" as="targetPoint" />
          </mxGeometry>
        </mxCell>
        <mxCell id="QyD0KAcA9nVcB5G6zPwa-5" value="扫描网址 URL/RawRequest" style="text;html=1;align=center;verticalAlign=middle;resizable=0;points=[];autosize=1;strokeColor=none;fillColor=none;" parent="QyD0KAcA9nVcB5G6zPwa-15" vertex="1">
          <mxGeometry width="170" height="30" as="geometry" />
        </mxCell>
        <mxCell id="QyD0KAcA9nVcB5G6zPwa-6" value="" style="endArrow=classic;html=1;rounded=0;fillColor=#d5e8d4;strokeColor=#000000;" parent="QyD0KAcA9nVcB5G6zPwa-15" edge="1">
          <mxGeometry width="50" height="50" relative="1" as="geometry">
            <mxPoint x="10.360000000000014" y="71" as="sourcePoint" />
            <mxPoint x="170.36" y="71" as="targetPoint" />
          </mxGeometry>
        </mxCell>
        <mxCell id="QyD0KAcA9nVcB5G6zPwa-7" value="全站扫描/单页面扫描" style="text;html=1;align=center;verticalAlign=middle;resizable=0;points=[];autosize=1;strokeColor=none;fillColor=none;" parent="QyD0KAcA9nVcB5G6zPwa-15" vertex="1">
          <mxGeometry x="20.360000000000014" y="41" width="130" height="30" as="geometry" />
        </mxCell>
        <mxCell id="QyD0KAcA9nVcB5G6zPwa-13" value="" style="endArrow=classic;html=1;rounded=0;" parent="QyD0KAcA9nVcB5G6zPwa-15" edge="1">
          <mxGeometry width="50" height="50" relative="1" as="geometry">
            <mxPoint x="10.360000000000014" y="111" as="sourcePoint" />
            <mxPoint x="170.36" y="111" as="targetPoint" />
          </mxGeometry>
        </mxCell>
        <mxCell id="QyD0KAcA9nVcB5G6zPwa-14" value="动态渲染/静态渲染" style="text;html=1;align=center;verticalAlign=middle;resizable=0;points=[];autosize=1;strokeColor=none;fillColor=none;" parent="QyD0KAcA9nVcB5G6zPwa-15" vertex="1">
          <mxGeometry x="25" y="79" width="120" height="30" as="geometry" />
        </mxCell>
        <mxCell id="FmbTqE_2FC3YgG93--Qd-3" value="" style="group" parent="9l7qEHy62hfw4V-4WoK3-1" vertex="1" connectable="0">
          <mxGeometry x="360" width="460" height="220" as="geometry" />
        </mxCell>
        <mxCell id="QyD0KAcA9nVcB5G6zPwa-2" value="" style="rounded=1;whiteSpace=wrap;html=1;" parent="FmbTqE_2FC3YgG93--Qd-3" vertex="1">
          <mxGeometry width="460" height="220" as="geometry" />
        </mxCell>
        <mxCell id="QyD0KAcA9nVcB5G6zPwa-8" value="&lt;font size=&quot;1&quot; style=&quot;&quot;&gt;&lt;b style=&quot;font-size: 18px;&quot;&gt;网络爬虫&lt;/b&gt;&lt;/font&gt;" style="text;html=1;align=center;verticalAlign=middle;resizable=0;points=[];autosize=1;strokeColor=none;fillColor=none;" parent="FmbTqE_2FC3YgG93--Qd-3" vertex="1">
          <mxGeometry x="180" y="-2" width="100" height="40" as="geometry" />
        </mxCell>
        <mxCell id="QyD0KAcA9nVcB5G6zPwa-146" value="网络请求" style="rounded=1;whiteSpace=wrap;html=1;fillColor=#dae8fc;strokeColor=#6c8ebf;" parent="FmbTqE_2FC3YgG93--Qd-3" vertex="1">
          <mxGeometry x="30" y="40" width="120" height="60" as="geometry" />
        </mxCell>
        <mxCell id="QyD0KAcA9nVcB5G6zPwa-147" value="响应解析" style="rounded=1;whiteSpace=wrap;html=1;fillColor=#dae8fc;strokeColor=#6c8ebf;" parent="FmbTqE_2FC3YgG93--Qd-3" vertex="1">
          <mxGeometry x="170" y="40" width="120" height="60" as="geometry" />
        </mxCell>
        <mxCell id="QyD0KAcA9nVcB5G6zPwa-148" value="网站爬取" style="rounded=1;whiteSpace=wrap;html=1;fillColor=#dae8fc;strokeColor=#6c8ebf;" parent="FmbTqE_2FC3YgG93--Qd-3" vertex="1">
          <mxGeometry x="307" y="40" width="120" height="60" as="geometry" />
        </mxCell>
        <mxCell id="QyD0KAcA9nVcB5G6zPwa-149" value="" style="endArrow=none;html=1;rounded=0;exitX=0.109;exitY=0.643;exitDx=0;exitDy=0;exitPerimeter=0;entryX=0.935;entryY=0.643;entryDx=0;entryDy=0;entryPerimeter=0;" parent="FmbTqE_2FC3YgG93--Qd-3" edge="1">
          <mxGeometry width="50" height="50" relative="1" as="geometry">
            <mxPoint x="28.019999999999868" y="109.65999999999985" as="sourcePoint" />
            <mxPoint x="431.9799999999999" y="109.65999999999985" as="targetPoint" />
          </mxGeometry>
        </mxCell>
        <mxCell id="FmbTqE_2FC3YgG93--Qd-2" value="网页请求体集合" style="ellipse;whiteSpace=wrap;html=1;fillColor=#d5e8d4;strokeColor=#82b366;" parent="FmbTqE_2FC3YgG93--Qd-3" vertex="1">
          <mxGeometry x="30" y="120" width="400" height="80" as="geometry" />
        </mxCell>
        <mxCell id="FmbTqE_2FC3YgG93--Qd-4" value="" style="group" parent="9l7qEHy62hfw4V-4WoK3-1" vertex="1" connectable="0">
          <mxGeometry x="360" y="280" width="460" height="220" as="geometry" />
        </mxCell>
        <mxCell id="FmbTqE_2FC3YgG93--Qd-5" value="" style="rounded=1;whiteSpace=wrap;html=1;" parent="FmbTqE_2FC3YgG93--Qd-4" vertex="1">
          <mxGeometry width="460" height="220" as="geometry" />
        </mxCell>
        <mxCell id="FmbTqE_2FC3YgG93--Qd-6" value="&lt;font size=&quot;1&quot; style=&quot;&quot;&gt;&lt;b style=&quot;font-size: 18px;&quot;&gt;规则引擎&lt;/b&gt;&lt;/font&gt;" style="text;html=1;align=center;verticalAlign=middle;resizable=0;points=[];autosize=1;strokeColor=none;fillColor=none;" parent="FmbTqE_2FC3YgG93--Qd-4" vertex="1">
          <mxGeometry x="180" y="-2" width="100" height="40" as="geometry" />
        </mxCell>
        <mxCell id="FmbTqE_2FC3YgG93--Qd-7" value="规则应用" style="rounded=1;whiteSpace=wrap;html=1;strokeColor=#b85450;fillColor=#f8cecc;" parent="FmbTqE_2FC3YgG93--Qd-4" vertex="1">
          <mxGeometry x="30" y="40" width="190" height="60" as="geometry" />
        </mxCell>
        <mxCell id="FmbTqE_2FC3YgG93--Qd-8" value="漏洞规则增删改查" style="rounded=1;whiteSpace=wrap;html=1;strokeColor=#b85450;fillColor=#f8cecc;" parent="FmbTqE_2FC3YgG93--Qd-4" vertex="1">
          <mxGeometry x="240" y="40" width="170" height="60" as="geometry" />
        </mxCell>
        <mxCell id="FmbTqE_2FC3YgG93--Qd-10" value="" style="endArrow=none;html=1;rounded=0;exitX=0.109;exitY=0.643;exitDx=0;exitDy=0;exitPerimeter=0;entryX=0.935;entryY=0.643;entryDx=0;entryDy=0;entryPerimeter=0;" parent="FmbTqE_2FC3YgG93--Qd-4" edge="1">
          <mxGeometry width="50" height="50" relative="1" as="geometry">
            <mxPoint x="28.019999999999868" y="109.65999999999985" as="sourcePoint" />
            <mxPoint x="431.9799999999999" y="109.65999999999985" as="targetPoint" />
          </mxGeometry>
        </mxCell>
        <mxCell id="FmbTqE_2FC3YgG93--Qd-14" value="&lt;font style=&quot;font-size: 12px;&quot;&gt;漏洞信息库&lt;/font&gt;" style="strokeWidth=1;html=1;shape=mxgraph.flowchart.database;whiteSpace=wrap;fillColor=#fff2cc;strokeColor=#d6b656;gradientColor=#ffd966;" parent="FmbTqE_2FC3YgG93--Qd-4" vertex="1">
          <mxGeometry x="40" y="130" width="380" height="70" as="geometry" />
        </mxCell>
        <mxCell id="FmbTqE_2FC3YgG93--Qd-13" value="网页请求" style="text;html=1;align=center;verticalAlign=middle;resizable=0;points=[];autosize=1;strokeColor=none;fillColor=none;" parent="9l7qEHy62hfw4V-4WoK3-1" vertex="1">
          <mxGeometry x="590" y="235" width="70" height="30" as="geometry" />
        </mxCell>
        <mxCell id="FmbTqE_2FC3YgG93--Qd-15" value="" style="endArrow=classic;html=1;rounded=0;" parent="9l7qEHy62hfw4V-4WoK3-1" edge="1">
          <mxGeometry width="50" height="50" relative="1" as="geometry">
            <mxPoint x="349.64" y="349.5" as="sourcePoint" />
            <mxPoint x="189.64" y="349.5" as="targetPoint" />
          </mxGeometry>
        </mxCell>
        <mxCell id="FmbTqE_2FC3YgG93--Qd-17" value="输出漏洞条目" style="text;html=1;align=center;verticalAlign=middle;resizable=0;points=[];autosize=1;strokeColor=none;fillColor=none;" parent="9l7qEHy62hfw4V-4WoK3-1" vertex="1">
          <mxGeometry x="214.64" y="320" width="100" height="30" as="geometry" />
        </mxCell>
        <mxCell id="FmbTqE_2FC3YgG93--Qd-18" value="" style="endArrow=classic;html=1;rounded=0;" parent="9l7qEHy62hfw4V-4WoK3-1" edge="1">
          <mxGeometry width="50" height="50" relative="1" as="geometry">
            <mxPoint x="189.64" y="429.5" as="sourcePoint" />
            <mxPoint x="349.64" y="429.5" as="targetPoint" />
          </mxGeometry>
        </mxCell>
        <mxCell id="FmbTqE_2FC3YgG93--Qd-19" value="漏洞规则的增删改查" style="text;html=1;align=center;verticalAlign=middle;resizable=0;points=[];autosize=1;strokeColor=none;fillColor=none;" parent="9l7qEHy62hfw4V-4WoK3-1" vertex="1">
          <mxGeometry x="199.27999999999997" y="397.5" width="130" height="30" as="geometry" />
        </mxCell>
        <mxCell id="FmbTqE_2FC3YgG93--Qd-20" style="edgeStyle=orthogonalEdgeStyle;rounded=0;orthogonalLoop=1;jettySize=auto;html=1;exitX=0.5;exitY=1;exitDx=0;exitDy=0;entryX=0.5;entryY=0;entryDx=0;entryDy=0;" parent="9l7qEHy62hfw4V-4WoK3-1" source="QyD0KAcA9nVcB5G6zPwa-2" target="FmbTqE_2FC3YgG93--Qd-5" edge="1">
          <mxGeometry relative="1" as="geometry" />
        </mxCell>
        <mxCell id="FmbTqE_2FC3YgG93--Qd-23" value="输入扫描目标" style="rounded=1;whiteSpace=wrap;html=1;fillColor=#fff2cc;strokeColor=#d6b656;" parent="9l7qEHy62hfw4V-4WoK3-1" vertex="1">
          <mxGeometry x="42.860000000000014" y="52" width="94.28" height="35" as="geometry" />
        </mxCell>
        <mxCell id="FmbTqE_2FC3YgG93--Qd-25" value="漏洞条目展示" style="rounded=1;whiteSpace=wrap;html=1;fillColor=#fff2cc;strokeColor=#d6b656;" parent="9l7qEHy62hfw4V-4WoK3-1" vertex="1">
          <mxGeometry x="42.860000000000014" y="133" width="94.28" height="35" as="geometry" />
        </mxCell>
        <mxCell id="FmbTqE_2FC3YgG93--Qd-26" value="漏洞结果导出" style="rounded=1;whiteSpace=wrap;html=1;fillColor=#fff2cc;strokeColor=#d6b656;" parent="9l7qEHy62hfw4V-4WoK3-1" vertex="1">
          <mxGeometry x="42.68000000000001" y="175" width="94.28" height="35" as="geometry" />
        </mxCell>
        <mxCell id="FmbTqE_2FC3YgG93--Qd-28" value="启动 &lt;b&gt;/ &lt;/b&gt;停止扫描" style="rounded=1;whiteSpace=wrap;html=1;fillColor=#fff2cc;strokeColor=#d6b656;" parent="9l7qEHy62hfw4V-4WoK3-1" vertex="1">
          <mxGeometry x="42.860000000000014" y="92.5" width="94.28" height="35" as="geometry" />
        </mxCell>
        <mxCell id="FmbTqE_2FC3YgG93--Qd-31" value="规则增删改查" style="rounded=1;whiteSpace=wrap;html=1;fillColor=#fff2cc;strokeColor=#d6b656;" parent="9l7qEHy62hfw4V-4WoK3-1" vertex="1">
          <mxGeometry x="42.68000000000001" y="320" width="94.28" height="40" as="geometry" />
        </mxCell>
        <mxCell id="FmbTqE_2FC3YgG93--Qd-32" value="全站&amp;nbsp;&lt;b&gt;/&lt;/b&gt; 单页扫描" style="rounded=1;whiteSpace=wrap;html=1;fillColor=#fff2cc;strokeColor=#d6b656;" parent="9l7qEHy62hfw4V-4WoK3-1" vertex="1">
          <mxGeometry x="42.67999999999999" y="371.75" width="94.28" height="40" as="geometry" />
        </mxCell>
        <mxCell id="FmbTqE_2FC3YgG93--Qd-33" value="动态&amp;nbsp;&lt;b&gt;/&lt;/b&gt;&amp;nbsp;静态渲染" style="rounded=1;whiteSpace=wrap;html=1;fillColor=#fff2cc;strokeColor=#d6b656;" parent="9l7qEHy62hfw4V-4WoK3-1" vertex="1">
          <mxGeometry x="42.68000000000001" y="425" width="94.28" height="40" as="geometry" />
        </mxCell>
      </root>
    </mxGraphModel>
  </diagram>
</mxfile>
